<svg width="64" height="15" viewBox="0 0 64 15" fill="none" xmlns="http://www.w3.org/2000/svg">
<path d="M10.525 8.94494C10.525 10.1576 10.0097 11.1443 8.979 11.9049C7.95367 12.6596 6.55933 13.0369 4.796 13.0369C3.776 13.0369 2.88567 12.9489 2.125 12.7729C1.36967 12.5909 0.661333 12.3619 0 12.0859V9.13494H0.347C1.003 9.65827 1.73633 10.0606 2.547 10.3419C3.36233 10.6233 4.145 10.7639 4.895 10.7639C5.08833 10.7639 5.34167 10.7473 5.655 10.7139C5.96967 10.6806 6.22633 10.6256 6.425 10.5489C6.667 10.4489 6.86533 10.3249 7.02 10.1769C7.18 10.0276 7.26 9.80694 7.26 9.51494C7.26 9.24494 7.144 9.01361 6.912 8.82094C6.686 8.62227 6.35267 8.47061 5.912 8.36594C5.44867 8.25527 4.958 8.15327 4.44 8.05994C3.92733 7.96061 3.445 7.83661 2.993 7.68794C1.95767 7.35127 1.211 6.89661 0.753 6.32394C0.300333 5.74461 0.074 5.02794 0.074 4.17394C0.074 3.02727 0.586667 2.09294 1.612 1.37094C2.64267 0.64294 3.966 0.278939 5.582 0.278939C6.39133 0.278939 7.19033 0.358939 7.979 0.518939C8.77233 0.673606 9.45867 0.869273 10.038 1.10594V3.94194H9.698C9.202 3.54527 8.593 3.21461 7.871 2.94994C7.15433 2.67994 6.42133 2.54494 5.672 2.54494C5.40733 2.54494 5.14267 2.56427 4.878 2.60294C4.61933 2.63627 4.36867 2.70227 4.126 2.80094C3.91067 2.88361 3.726 3.01027 3.572 3.18094C3.41733 3.34694 3.34 3.53727 3.34 3.75194C3.34 4.07727 3.464 4.32827 3.712 4.50494C3.96067 4.67561 4.42933 4.83227 5.118 4.97494C5.57 5.06894 6.00267 5.16027 6.416 5.24894C6.83533 5.33694 7.28467 5.45794 7.764 5.61194C8.70667 5.92061 9.401 6.34261 9.847 6.87794C10.299 7.40661 10.525 8.09561 10.525 8.94494ZM23.87 0.502939L19.38 12.8139H15.825L11.335 0.502939H14.668L17.644 9.15094L20.621 0.502939H23.87ZM36.529 12.1109C35.9777 12.3263 35.2473 12.5413 34.338 12.7559C33.4287 12.9653 32.522 13.0699 31.618 13.0699C29.5233 13.0699 27.8833 12.5023 26.698 11.3669C25.5127 10.2263 24.92 8.65261 24.92 6.64594C24.92 4.73261 25.5183 3.19194 26.715 2.02394C27.911 0.849939 29.5783 0.262939 31.717 0.262939C32.527 0.262939 33.2987 0.337273 34.032 0.485939C34.7653 0.629273 35.581 0.918606 36.479 1.35394V4.23994H36.124C35.9693 4.12394 35.7433 3.96127 35.446 3.75194C35.148 3.53727 34.8613 3.35527 34.586 3.20594C34.266 3.02994 33.8913 2.87861 33.462 2.75194C33.0373 2.62527 32.5853 2.56194 32.106 2.56194C31.5433 2.56194 31.0333 2.64461 30.576 2.80994C30.1187 2.97527 29.708 3.22861 29.344 3.56994C28.9967 3.90061 28.721 4.32227 28.517 4.83494C28.3183 5.34161 28.219 5.92861 28.219 6.59594C28.219 7.95794 28.5803 8.99994 29.303 9.72194C30.025 10.4439 31.0917 10.8049 32.503 10.8049C32.6237 10.8049 32.7557 10.8023 32.899 10.7969C33.0483 10.7916 33.1833 10.7833 33.304 10.7719V8.35794H30.85V6.03394H36.53L36.529 12.1109ZM43.453 12.8139H42.481V4.77394H43.453V12.8139ZM50.264 9.92994C50.264 10.8706 50.0227 11.6133 49.54 12.1579C49.058 12.7019 48.412 12.9739 47.602 12.9739C46.786 12.9739 46.1367 12.7019 45.654 12.1579C45.1753 11.6133 44.936 10.8709 44.936 9.93094C44.936 8.99027 45.1753 8.24761 45.654 7.70294C46.1367 7.15561 46.786 6.88194 47.602 6.88194C48.412 6.88194 49.058 7.15561 49.54 7.70294C50.0227 8.24761 50.264 8.99027 50.264 9.93094V9.92994ZM49.261 9.92994C49.261 9.18327 49.1143 8.62894 48.821 8.26694C48.529 7.90161 48.1227 7.71894 47.602 7.71894C47.0753 7.71894 46.6653 7.90161 46.372 8.26694C46.0827 8.62827 45.938 9.18294 45.938 9.93094C45.938 10.6543 46.0847 11.2036 46.378 11.5789C46.6707 11.9509 47.0787 12.1369 47.602 12.1369C48.1187 12.1369 48.5237 11.9526 48.817 11.5839C49.113 11.2119 49.261 10.6609 49.261 9.93094V9.92994ZM56.454 12.1579C56.454 13.1359 56.232 13.8543 55.788 14.3129C55.3433 14.7709 54.6593 14.9999 53.736 14.9999C53.4293 14.9999 53.1297 14.9776 52.837 14.9329C52.5477 14.8916 52.2617 14.8313 51.979 14.7519V13.7599H52.031C52.1897 13.8219 52.441 13.8976 52.785 13.9869C53.1297 14.0803 53.4743 14.1269 53.819 14.1269C54.1497 14.1269 54.4237 14.0869 54.641 14.0069C54.8577 13.9283 55.0263 13.8183 55.147 13.6769C55.267 13.5429 55.353 13.3809 55.405 13.1909C55.457 13.0016 55.483 12.7899 55.483 12.5559V12.0289C55.1897 12.2629 54.909 12.4386 54.641 12.5559C54.3757 12.6693 54.0363 12.7259 53.623 12.7259C52.9337 12.7259 52.3857 12.4779 51.979 11.9819C51.5763 11.4819 51.375 10.7793 51.375 9.87394C51.375 9.37794 51.4437 8.95061 51.581 8.59194C51.7223 8.23061 51.9137 7.91894 52.155 7.65694C52.379 7.41227 52.651 7.22261 52.971 7.08794C53.2917 6.95061 53.6103 6.88194 53.927 6.88194C54.2617 6.88194 54.541 6.91627 54.765 6.98494C54.9917 7.05027 55.231 7.15194 55.483 7.28994L55.545 7.04194H56.455L56.454 12.1579ZM55.483 11.2279V8.07994C55.2243 7.96261 54.983 7.87961 54.759 7.83094C54.539 7.77961 54.3187 7.75394 54.098 7.75394C53.564 7.75394 53.144 7.93294 52.838 8.29094C52.5313 8.64961 52.378 9.16994 52.378 9.85194C52.378 10.4999 52.4913 10.9909 52.718 11.3249C52.9453 11.6589 53.3227 11.8259 53.85 11.8259C54.1327 11.8259 54.415 11.7726 54.697 11.6659C54.9837 11.5553 55.2457 11.4086 55.483 11.2259V11.2279ZM63.286 9.92994C63.286 10.8706 63.045 11.6133 62.563 12.1579C62.0803 12.7019 61.4343 12.9739 60.625 12.9739C59.8083 12.9739 59.159 12.7019 58.677 12.1579C58.1977 11.6133 57.958 10.8709 57.958 9.93094C57.958 8.99027 58.1977 8.24761 58.677 7.70294C59.159 7.15561 59.8083 6.88194 60.625 6.88194C61.4343 6.88194 62.0803 7.15561 62.563 7.70294C63.045 8.24761 63.286 8.99027 63.286 9.93094V9.92994ZM62.284 9.92994C62.284 9.18327 62.1373 8.62894 61.844 8.26694C61.5513 7.90161 61.1447 7.71894 60.624 7.71894C60.0973 7.71894 59.6873 7.90161 59.394 8.26694C59.1053 8.62827 58.961 9.18294 58.961 9.93094C58.961 10.6543 59.1073 11.2036 59.4 11.5789C59.6933 11.9509 60.1017 12.1369 60.625 12.1369C61.1417 12.1369 61.5463 11.9526 61.839 11.5839C62.1357 11.2119 62.284 10.6609 62.284 9.93094V9.92994Z" fill="white"/>
</svg>
